
        <svg width="400px" height="400px" viewBox="0 0 400 400" version="1.1" xmlns="http://www.w3.org/2000/svg" xmlns:xlink="http://www.w3.org/1999/xlink">
          <defs>
            <linearGradient x1="0%" y1="50%" x2="100%" y2="50%" id="shadeGradientLight">
              <stop stop-color="#3A3A3A" offset="0%"></stop>
              <stop stop-color="#414141" offset="16.67%"></stop>
              <stop stop-color="#646464" offset="33.33%"></stop>
              <stop stop-color="#858585" offset="50%"></stop>
              <stop stop-color="#9A9A9A" offset="66.67%"></stop>
              <stop stop-color="#B0B0B0" offset="83.33%"></stop>
              <stop stop-color="#C7C7C7" offset="100%"></stop>
            </linearGradient>
            <linearGradient x1="0%" y1="50%" x2="100%" y2="50%" id="shadeGradientDark">
              <stop stop-color="#586169" offset="0%"></stop>
              <stop stop-color="#6A7A82" offset="16.67%"></stop>
              <stop stop-color="#7D929B" offset="33.33%"></stop>
              <stop stop-color="#90AAB4" offset="50%"></stop>
              <stop stop-color="#A3C2CD" offset="66.67%"></stop>
              <stop stop-color="#B5DBE6" offset="83.33%"></stop>
              <stop stop-color="#C7F3FF" offset="100%"></stop>
            </linearGradient>
          </defs>
          <g id="light">
            <rect fill="#FAF5EB" x="0" y="0" width="400" height="200"></rect>
            <rect fill="#000000" x="28" y="28" width="74" height="37"></rect>
            <rect fill="#A0A0A0" x="118" y="28" width="74" height="37"></rect>
            <rect fill="#767676" x="208" y="28" width="74" height="37"></rect>
            <rect fill="#6D6D6D" x="298" y="28" width="74" height="37"></rect>
            <rect fill="#5F5F5F" x="28" y="81" width="74" height="37"></rect>
            <rect fill="#373737" x="118" y="81" width="74" height="37"></rect>
            <rect fill="#1C1C1C" x="208" y="81" width="74" height="37"></rect>
            <rect fill="#000000" x="298" y="81" width="74" height="37"></rect>
            <rect fill="url(#shadeGradientLight)" x="28" y="134" width="344" height="37"></rect>
          </g>
          <g id="dark" transform="translate(0.000000, 200.000000)">
            <rect fill="#44484F" x="0" y="0" width="400" height="200"></rect>
            <rect fill="#F59597" x="28" y="28" width="74" height="37"></rect>
            <rect fill="#F2B494" x="118" y="28" width="74" height="37"></rect>
            <rect fill="#F2DB94" x="208" y="28" width="74" height="37"></rect>
            <rect fill="#C8F29D" x="298" y="28" width="74" height="37"></rect>
            <rect fill="#94F2DD" x="28" y="81" width="74" height="37"></rect>
            <rect fill="#94CEF2" x="118" y="81" width="74" height="37"></rect>
            <rect fill="#DB9CF7" x="208" y="81" width="74" height="37"></rect>
            <rect fill="#F79CE0" x="298" y="81" width="74" height="37"></rect>
            <rect fill="url(#shadeGradientDark)" x="28" y="134" width="344" height="37"></rect>
          </g>
        </svg>
      